<svg width="9000" height="9000" viewBox="0 0 9000 9000" fill="none" xmlns="http://www.w3.org/2000/svg">
<path d="M4500 0L8397.11 2250V6750L4500 9000L602.886 6750V2250L4500 0Z" fill="#1F269D"/>
<path d="M4499.5 701L7789.1 2600.25V6398.75L4499.5 8298L1209.9 6398.75V2600.25L4499.5 701Z" fill="white"/>
<path d="M4499.5 4949.2C4747.84 4949.2 4949.16 4748.09 4949.16 4500C4949.16 4251.91 4747.84 4050.8 4499.5 4050.8C4251.16 4050.8 4049.84 4251.91 4049.84 4500C4049.84 4748.09 4251.16 4949.2 4499.5 4949.2Z" fill="#1F269D"/>
<path d="M4499.5 5420.31C5832.07 5420.31 6912.33 5008.27 6912.33 4500C6912.33 3991.73 5832.07 3579.69 4499.5 3579.69C3166.93 3579.69 2086.68 3991.73 2086.68 4500C2086.68 5008.27 3166.93 5420.31 4499.5 5420.31Z" stroke="#1F269D" stroke-width="50"/>
<path d="M3701.67 4960.16C4367.95 6113.01 5265.28 6841.56 5705.92 6587.42C6146.55 6333.28 5963.62 5192.69 5297.34 4039.84C4631.06 2886.99 3733.72 2158.44 3293.09 2412.58C2852.46 2666.72 3035.38 3807.31 3701.67 4960.16Z" stroke="#1F269D" stroke-width="50"/>
<path d="M3701.67 4039.84C3035.38 5192.69 2852.46 6333.28 3293.09 6587.42C3733.72 6841.56 4631.05 6113.01 5297.34 4960.16C5963.62 3807.31 6146.55 2666.72 5705.91 2412.58C5265.28 2158.44 4367.95 2886.99 3701.67 4039.84Z" stroke="#1F269D" stroke-width="50"/>
</svg>
